<svg width="802" height="765" viewBox="0 0 802 765" fill="none" xmlns="http://www.w3.org/2000/svg">
<path d="M456.937 580.564L422.653 516.819C412.958 498.752 388.689 498.752 378.994 516.819L344.71 580.564L297.328 668.739C293.476 675.941 298.291 685.005 306.059 685.005H495.587C503.356 685.005 508.236 676.001 504.319 668.739L456.937 580.564Z" fill="#FA8917"/>
<path d="M801.642 717.281C801.578 710.678 799.973 703.896 796.506 697.474L615.389 365.064L427.466 20.1679C420.147 6.72264 410.517 0 400.821 0C391.127 0 381.496 6.72264 374.177 20.1679L186.254 365.064L5.13626 697.474C1.66928 703.896 0.0642033 710.678 0 717.281C0 717.702 0 718.061 0 718.421V720.523C0 744.953 21.3797 765 47.5747 765H195.757C220.345 765 240.698 747.354 243.074 724.964C243.908 720.103 243.716 715.001 242.432 709.898C241.083 703.416 238.13 697.474 234.085 692.311C233.829 691.951 233.636 691.531 233.379 691.171C230.49 686.849 226.253 682.708 225.032 677.905C222.658 668.902 248.338 616.021 258.29 598.735C266.508 584.509 274.661 570.284 282.88 556.058L393.887 363.322C395.814 359.962 398.382 358.28 400.95 358.28C403.518 358.28 406.021 359.962 408.013 363.322C408.013 363.322 519.02 555.998 519.02 556.058C527.238 570.284 535.391 584.509 543.609 598.735C553.561 616.021 579.242 668.902 576.867 677.905C575.583 682.708 571.41 686.849 568.52 691.171C568.263 691.531 568.072 691.891 567.815 692.311C563.769 697.474 560.88 703.416 559.468 709.898C558.119 715.001 557.927 720.103 558.826 724.964C561.201 747.354 581.554 765 606.144 765H754.324C780.455 765 801.899 745.013 801.899 720.523V718.421C801.899 718.001 801.899 717.641 801.835 717.221L801.642 717.281Z" fill="#FA8917"/>
</svg>
